<mxfile host="Electron" agent="Mozilla/5.0 (Windows NT 10.0; Win64; x64) AppleWebKit/537.36 (KHTML, like Gecko) draw.io/26.0.16 Chrome/132.0.6834.196 Electron/34.2.0 Safari/537.36" version="26.0.16">
  <diagram id="prtHgNgQTEPvFCAcTncT" name="Page-1">
    <mxGraphModel dx="1510" dy="398" grid="1" gridSize="10" guides="1" tooltips="1" connect="1" arrows="1" fold="1" page="1" pageScale="1" pageWidth="827" pageHeight="1169" math="0" shadow="0">
      <root>
        <mxCell id="0" />
        <mxCell id="1" parent="0" />
        <mxCell id="n47eNlnoth5snDdlfKDB-166" style="edgeStyle=orthogonalEdgeStyle;shape=connector;curved=0;rounded=1;orthogonalLoop=1;jettySize=auto;html=1;exitX=0.5;exitY=1;exitDx=0;exitDy=0;entryX=0.5;entryY=0;entryDx=0;entryDy=0;dashed=1;strokeColor=default;align=center;verticalAlign=middle;fontFamily=Helvetica;fontSize=11;fontColor=default;labelBackgroundColor=default;startArrow=oval;startFill=0;endArrow=classic;endFill=0;" parent="1" source="n47eNlnoth5snDdlfKDB-128" target="n47eNlnoth5snDdlfKDB-160" edge="1">
          <mxGeometry relative="1" as="geometry">
            <Array as="points">
              <mxPoint x="55" y="260" />
              <mxPoint x="-25" y="260" />
            </Array>
          </mxGeometry>
        </mxCell>
        <mxCell id="n47eNlnoth5snDdlfKDB-156" style="edgeStyle=orthogonalEdgeStyle;shape=connector;curved=0;rounded=1;orthogonalLoop=1;jettySize=auto;html=1;exitX=0.75;exitY=0;exitDx=0;exitDy=0;entryX=0;entryY=0.5;entryDx=0;entryDy=0;dashed=1;strokeColor=default;align=center;verticalAlign=middle;fontFamily=Helvetica;fontSize=11;fontColor=default;labelBackgroundColor=default;startArrow=oval;startFill=0;endArrow=classic;endFill=0;" parent="1" source="n47eNlnoth5snDdlfKDB-112" target="n47eNlnoth5snDdlfKDB-126" edge="1">
          <mxGeometry relative="1" as="geometry">
            <Array as="points">
              <mxPoint x="-172" y="260" />
              <mxPoint x="-130" y="260" />
              <mxPoint x="-130" y="180" />
            </Array>
          </mxGeometry>
        </mxCell>
        <mxCell id="n47eNlnoth5snDdlfKDB-121" style="edgeStyle=orthogonalEdgeStyle;shape=connector;curved=0;rounded=1;orthogonalLoop=1;jettySize=auto;html=1;exitX=0.5;exitY=1;exitDx=0;exitDy=0;entryX=0.5;entryY=0;entryDx=0;entryDy=0;dashed=1;strokeColor=default;align=center;verticalAlign=middle;fontFamily=Helvetica;fontSize=11;fontColor=default;labelBackgroundColor=default;startArrow=oval;startFill=0;endArrow=classic;endFill=0;" parent="1" source="n47eNlnoth5snDdlfKDB-111" target="n47eNlnoth5snDdlfKDB-115" edge="1">
          <mxGeometry relative="1" as="geometry">
            <Array as="points">
              <mxPoint x="-195" y="260" />
              <mxPoint x="-275" y="260" />
            </Array>
          </mxGeometry>
        </mxCell>
        <mxCell id="dNxyNK7c78bLwvsdeMH5-19" value="Modelo To-Be: Consulta às FISPQ&#39;s" style="swimlane;html=1;childLayout=stackLayout;resizeParent=1;resizeParentMax=0;horizontal=0;startSize=20;horizontalStack=0;container=0;" parent="1" vertex="1">
          <mxGeometry x="-380" y="120" width="1860" height="240" as="geometry" />
        </mxCell>
        <mxCell id="n47eNlnoth5snDdlfKDB-105" style="edgeStyle=orthogonalEdgeStyle;shape=connector;curved=0;rounded=1;orthogonalLoop=1;jettySize=auto;html=1;exitX=0.75;exitY=0;exitDx=0;exitDy=0;entryX=0.25;entryY=1;entryDx=0;entryDy=0;dashed=1;strokeColor=default;align=center;verticalAlign=middle;fontFamily=Helvetica;fontSize=11;fontColor=default;labelBackgroundColor=default;startArrow=oval;startFill=0;endArrow=classic;endFill=0;" parent="1" source="n47eNlnoth5snDdlfKDB-69" target="n47eNlnoth5snDdlfKDB-104" edge="1">
          <mxGeometry relative="1" as="geometry">
            <Array as="points">
              <mxPoint x="1128" y="230" />
              <mxPoint x="1303" y="230" />
            </Array>
          </mxGeometry>
        </mxCell>
        <mxCell id="n47eNlnoth5snDdlfKDB-84" style="edgeStyle=orthogonalEdgeStyle;shape=connector;curved=0;rounded=1;orthogonalLoop=1;jettySize=auto;html=1;exitX=0.5;exitY=1;exitDx=0;exitDy=0;entryX=0.5;entryY=0;entryDx=0;entryDy=0;dashed=1;strokeColor=default;align=center;verticalAlign=middle;fontFamily=Helvetica;fontSize=11;fontColor=default;labelBackgroundColor=default;startArrow=oval;startFill=0;endArrow=classic;endFill=0;" parent="1" source="n47eNlnoth5snDdlfKDB-81" target="n47eNlnoth5snDdlfKDB-71" edge="1">
          <mxGeometry relative="1" as="geometry">
            <Array as="points">
              <mxPoint x="1105" y="260" />
              <mxPoint x="1025" y="260" />
            </Array>
          </mxGeometry>
        </mxCell>
        <mxCell id="n47eNlnoth5snDdlfKDB-66" style="edgeStyle=orthogonalEdgeStyle;shape=connector;curved=0;rounded=1;orthogonalLoop=1;jettySize=auto;html=1;exitX=0.75;exitY=0;exitDx=0;exitDy=0;dashed=1;strokeColor=default;align=center;verticalAlign=middle;fontFamily=Helvetica;fontSize=11;fontColor=default;labelBackgroundColor=default;startArrow=oval;startFill=0;endArrow=classic;endFill=0;entryX=0;entryY=0.5;entryDx=0;entryDy=0;" parent="1" source="n47eNlnoth5snDdlfKDB-50" target="n47eNlnoth5snDdlfKDB-90" edge="1">
          <mxGeometry relative="1" as="geometry">
            <mxPoint x="850" y="180" as="targetPoint" />
            <Array as="points">
              <mxPoint x="768" y="250" />
              <mxPoint x="830" y="250" />
              <mxPoint x="830" y="180" />
            </Array>
          </mxGeometry>
        </mxCell>
        <mxCell id="n47eNlnoth5snDdlfKDB-63" style="edgeStyle=orthogonalEdgeStyle;shape=connector;curved=0;rounded=1;orthogonalLoop=1;jettySize=auto;html=1;exitX=0.5;exitY=1;exitDx=0;exitDy=0;entryX=0.5;entryY=0;entryDx=0;entryDy=0;dashed=1;strokeColor=default;align=center;verticalAlign=middle;fontFamily=Helvetica;fontSize=11;fontColor=default;labelBackgroundColor=default;startArrow=oval;startFill=0;endArrow=classic;endFill=0;" parent="1" source="n47eNlnoth5snDdlfKDB-47" target="n47eNlnoth5snDdlfKDB-52" edge="1">
          <mxGeometry relative="1" as="geometry">
            <Array as="points">
              <mxPoint x="745" y="260" />
              <mxPoint x="665" y="260" />
            </Array>
          </mxGeometry>
        </mxCell>
        <mxCell id="n47eNlnoth5snDdlfKDB-49" style="edgeStyle=orthogonalEdgeStyle;shape=connector;curved=0;rounded=1;orthogonalLoop=1;jettySize=auto;html=1;exitX=0.75;exitY=0;exitDx=0;exitDy=0;entryX=0.25;entryY=1;entryDx=0;entryDy=0;dashed=1;strokeColor=default;align=center;verticalAlign=middle;fontFamily=Helvetica;fontSize=11;fontColor=default;labelBackgroundColor=default;startArrow=oval;startFill=0;endArrow=classic;endFill=0;" parent="1" source="n47eNlnoth5snDdlfKDB-13" target="n47eNlnoth5snDdlfKDB-47" edge="1">
          <mxGeometry relative="1" as="geometry">
            <Array as="points">
              <mxPoint x="548" y="230" />
              <mxPoint x="723" y="230" />
            </Array>
          </mxGeometry>
        </mxCell>
        <mxCell id="n47eNlnoth5snDdlfKDB-38" style="edgeStyle=orthogonalEdgeStyle;rounded=1;orthogonalLoop=1;jettySize=auto;html=1;exitX=0.5;exitY=1;exitDx=0;exitDy=0;entryX=0.5;entryY=0;entryDx=0;entryDy=0;endArrow=classic;endFill=0;dashed=1;startArrow=oval;startFill=0;curved=0;" parent="1" source="nLnUjlvC0J46Ff9aY2Y2-42" target="n47eNlnoth5snDdlfKDB-22" edge="1">
          <mxGeometry relative="1" as="geometry">
            <Array as="points">
              <mxPoint x="525" y="260" />
              <mxPoint x="445" y="260" />
            </Array>
          </mxGeometry>
        </mxCell>
        <mxCell id="nLnUjlvC0J46Ff9aY2Y2-34" style="edgeStyle=orthogonalEdgeStyle;rounded=1;orthogonalLoop=1;jettySize=auto;html=1;exitX=0.75;exitY=0;exitDx=0;exitDy=0;entryX=0.25;entryY=1;entryDx=0;entryDy=0;endArrow=classic;endFill=0;dashed=1;startArrow=oval;startFill=0;curved=0;" parent="1" source="nLnUjlvC0J46Ff9aY2Y2-1" target="nLnUjlvC0J46Ff9aY2Y2-42" edge="1">
          <mxGeometry relative="1" as="geometry">
            <Array as="points">
              <mxPoint x="328" y="230" />
              <mxPoint x="503" y="230" />
              <mxPoint x="503" y="210" />
            </Array>
          </mxGeometry>
        </mxCell>
        <mxCell id="nLnUjlvC0J46Ff9aY2Y2-10" style="edgeStyle=orthogonalEdgeStyle;rounded=1;orthogonalLoop=1;jettySize=auto;html=1;exitX=0.5;exitY=1;exitDx=0;exitDy=0;entryX=0.5;entryY=0;entryDx=0;entryDy=0;curved=0;dashed=1;startArrow=oval;startFill=0;spacing=-3;endArrow=classic;endFill=0;" parent="1" source="dNxyNK7c78bLwvsdeMH5-24" target="nLnUjlvC0J46Ff9aY2Y2-2" edge="1">
          <mxGeometry relative="1" as="geometry">
            <Array as="points">
              <mxPoint x="305" y="260" />
              <mxPoint x="225" y="260" />
            </Array>
          </mxGeometry>
        </mxCell>
        <mxCell id="dNxyNK7c78bLwvsdeMH5-20" value="Funcionário" style="swimlane;html=1;startSize=20;horizontal=0;container=0;" parent="1" vertex="1">
          <mxGeometry x="-360" y="120" width="1840" height="120" as="geometry" />
        </mxCell>
        <mxCell id="n47eNlnoth5snDdlfKDB-128" value="Cadastrar-se" style="rounded=1;whiteSpace=wrap;html=1;fontFamily=Helvetica;fontSize=9;align=center;fillColor=#dae8fc;strokeColor=#6c8ebf;container=0;" parent="dNxyNK7c78bLwvsdeMH5-20" vertex="1">
          <mxGeometry x="370" y="30" width="90" height="60" as="geometry" />
        </mxCell>
        <mxCell id="n47eNlnoth5snDdlfKDB-130" value="" style="ellipse;whiteSpace=wrap;html=1;fillColor=#f5f5f5;strokeColor=#666666;fontColor=#333333;container=0;" parent="dNxyNK7c78bLwvsdeMH5-20" vertex="1">
          <mxGeometry x="860" y="45" width="30" height="30" as="geometry" />
        </mxCell>
        <mxCell id="n47eNlnoth5snDdlfKDB-131" value="" style="ellipse;whiteSpace=wrap;html=1;fillColor=#f5f5f5;strokeColor=#666666;fontColor=#333333;container=0;" parent="dNxyNK7c78bLwvsdeMH5-20" vertex="1">
          <mxGeometry x="865" y="50" width="20" height="20" as="geometry" />
        </mxCell>
        <mxCell id="n47eNlnoth5snDdlfKDB-134" style="edgeStyle=orthogonalEdgeStyle;rounded=0;orthogonalLoop=1;jettySize=auto;html=1;exitX=1;exitY=0.5;exitDx=0;exitDy=0;entryX=0;entryY=0.5;entryDx=0;entryDy=0;" parent="dNxyNK7c78bLwvsdeMH5-20" edge="1">
          <mxGeometry relative="1" as="geometry">
            <mxPoint x="810" y="59.83000000000001" as="sourcePoint" />
            <mxPoint x="860" y="59.83000000000001" as="targetPoint" />
          </mxGeometry>
        </mxCell>
        <mxCell id="n47eNlnoth5snDdlfKDB-137" value="Sim" style="edgeLabel;html=1;align=center;verticalAlign=middle;resizable=0;points=[];fontFamily=Helvetica;fontSize=7;fontColor=default;labelBackgroundColor=default;container=0;" parent="dNxyNK7c78bLwvsdeMH5-20" vertex="1" connectable="0">
          <mxGeometry x="300" y="30" as="geometry" />
        </mxCell>
        <mxCell id="n47eNlnoth5snDdlfKDB-138" value="Não" style="edgeLabel;html=1;align=center;verticalAlign=middle;resizable=0;points=[];fontFamily=Helvetica;fontSize=7;fontColor=default;labelBackgroundColor=default;container=0;" parent="dNxyNK7c78bLwvsdeMH5-20" vertex="1" connectable="0">
          <mxGeometry x="340" y="54" as="geometry" />
        </mxCell>
        <mxCell id="dNxyNK7c78bLwvsdeMH5-25" value="" style="edgeStyle=orthogonalEdgeStyle;rounded=0;orthogonalLoop=1;jettySize=auto;html=1;" parent="dNxyNK7c78bLwvsdeMH5-20" source="dNxyNK7c78bLwvsdeMH5-23" edge="1">
          <mxGeometry relative="1" as="geometry">
            <mxPoint x="120" y="60" as="targetPoint" />
          </mxGeometry>
        </mxCell>
        <mxCell id="dNxyNK7c78bLwvsdeMH5-23" value="" style="ellipse;whiteSpace=wrap;html=1;fillColor=#d5e8d4;strokeColor=#82b366;container=0;" parent="dNxyNK7c78bLwvsdeMH5-20" vertex="1">
          <mxGeometry x="70" y="45" width="30" height="30" as="geometry" />
        </mxCell>
        <mxCell id="n47eNlnoth5snDdlfKDB-111" value="Identificar-se" style="rounded=1;whiteSpace=wrap;html=1;fontFamily=Helvetica;fontSize=9;align=center;fillColor=#dae8fc;strokeColor=#6c8ebf;container=0;" parent="dNxyNK7c78bLwvsdeMH5-20" vertex="1">
          <mxGeometry x="120" y="30" width="90" height="60" as="geometry" />
        </mxCell>
        <mxCell id="n47eNlnoth5snDdlfKDB-141" value="&lt;p style=&quot;line-height: 30%; font-size: 5px;&quot;&gt;E-mail /&lt;/p&gt;&lt;p style=&quot;line-height: 30%; font-size: 5px;&quot;&gt;senha&lt;/p&gt;" style="text;html=1;align=center;verticalAlign=middle;resizable=0;points=[];autosize=1;strokeColor=none;fillColor=none;fontSize=9;container=0;" parent="dNxyNK7c78bLwvsdeMH5-20" vertex="1">
          <mxGeometry x="156" y="89" width="40" height="30" as="geometry" />
        </mxCell>
        <mxCell id="n47eNlnoth5snDdlfKDB-154" style="edgeStyle=orthogonalEdgeStyle;shape=connector;curved=0;rounded=1;orthogonalLoop=1;jettySize=auto;html=1;exitX=0.5;exitY=0;exitDx=0;exitDy=0;entryX=0.5;entryY=0;entryDx=0;entryDy=0;strokeColor=default;align=center;verticalAlign=middle;fontFamily=Helvetica;fontSize=11;fontColor=default;labelBackgroundColor=default;startArrow=none;startFill=0;endArrow=classic;endFill=1;" parent="dNxyNK7c78bLwvsdeMH5-20" source="n47eNlnoth5snDdlfKDB-126" target="n47eNlnoth5snDdlfKDB-152" edge="1">
          <mxGeometry relative="1" as="geometry">
            <Array as="points">
              <mxPoint x="290" y="10" />
              <mxPoint x="555" y="10" />
            </Array>
          </mxGeometry>
        </mxCell>
        <mxCell id="n47eNlnoth5snDdlfKDB-126" value="&lt;div style=&quot;line-height: 70%;&quot;&gt;&lt;span style=&quot;font-size: 6px;&quot;&gt;Funcionário&lt;/span&gt;&lt;/div&gt;&lt;div style=&quot;line-height: 70%;&quot;&gt;&lt;span style=&quot;font-size: 6px;&quot;&gt;cadastrado?&lt;/span&gt;&lt;/div&gt;" style="rhombus;whiteSpace=wrap;html=1;fontFamily=Helvetica;fontSize=11;labelBackgroundColor=none;fillColor=#fff2cc;strokeColor=#d6b656;container=0;" parent="dNxyNK7c78bLwvsdeMH5-20" vertex="1">
          <mxGeometry x="250" y="40" width="80" height="40" as="geometry" />
        </mxCell>
        <mxCell id="dNxyNK7c78bLwvsdeMH5-24" value="Visualizar lista&lt;div&gt;de produtos&lt;/div&gt;&lt;div&gt;químicos&lt;/div&gt;" style="rounded=1;whiteSpace=wrap;html=1;fontFamily=Helvetica;fontSize=9;align=center;fillColor=#dae8fc;strokeColor=#6c8ebf;container=0;" parent="dNxyNK7c78bLwvsdeMH5-20" vertex="1">
          <mxGeometry x="620" y="30" width="90" height="60" as="geometry" />
        </mxCell>
        <mxCell id="n47eNlnoth5snDdlfKDB-147" style="edgeStyle=orthogonalEdgeStyle;rounded=0;orthogonalLoop=1;jettySize=auto;html=1;exitX=1;exitY=0.5;exitDx=0;exitDy=0;entryX=0;entryY=0.5;entryDx=0;entryDy=0;" parent="dNxyNK7c78bLwvsdeMH5-20" target="n47eNlnoth5snDdlfKDB-128" edge="1">
          <mxGeometry relative="1" as="geometry">
            <mxPoint x="330" y="59.84" as="sourcePoint" />
            <mxPoint x="380" y="59.84" as="targetPoint" />
            <Array as="points">
              <mxPoint x="370" y="60" />
            </Array>
          </mxGeometry>
        </mxCell>
        <mxCell id="n47eNlnoth5snDdlfKDB-148" style="edgeStyle=orthogonalEdgeStyle;rounded=0;orthogonalLoop=1;jettySize=auto;html=1;exitX=1;exitY=0.5;exitDx=0;exitDy=0;" parent="dNxyNK7c78bLwvsdeMH5-20" source="n47eNlnoth5snDdlfKDB-128" edge="1">
          <mxGeometry relative="1" as="geometry">
            <mxPoint x="540.0000000000001" y="59.97297297297297" as="targetPoint" />
            <mxPoint x="490" y="60" as="sourcePoint" />
          </mxGeometry>
        </mxCell>
        <mxCell id="n47eNlnoth5snDdlfKDB-149" style="edgeStyle=orthogonalEdgeStyle;rounded=0;orthogonalLoop=1;jettySize=auto;html=1;exitX=1;exitY=0.5;exitDx=0;exitDy=0;entryX=0;entryY=0.5;entryDx=0;entryDy=0;" parent="dNxyNK7c78bLwvsdeMH5-20" source="n47eNlnoth5snDdlfKDB-152" edge="1">
          <mxGeometry relative="1" as="geometry">
            <mxPoint x="620" y="60" as="targetPoint" />
          </mxGeometry>
        </mxCell>
        <mxCell id="n47eNlnoth5snDdlfKDB-151" value="" style="ellipse;whiteSpace=wrap;html=1;fillColor=#d5e8d4;strokeColor=#82b366;container=0;" parent="dNxyNK7c78bLwvsdeMH5-20" vertex="1">
          <mxGeometry x="540" y="45" width="30" height="30" as="geometry" />
        </mxCell>
        <mxCell id="n47eNlnoth5snDdlfKDB-152" value="" style="ellipse;whiteSpace=wrap;html=1;fillColor=#f5f5f5;strokeColor=#666666;fontColor=#333333;container=0;" parent="dNxyNK7c78bLwvsdeMH5-20" vertex="1">
          <mxGeometry x="540" y="45" width="30" height="30" as="geometry" />
        </mxCell>
        <mxCell id="n47eNlnoth5snDdlfKDB-153" value="" style="ellipse;whiteSpace=wrap;html=1;fillColor=#f5f5f5;strokeColor=#666666;fontColor=#333333;container=0;" parent="dNxyNK7c78bLwvsdeMH5-20" vertex="1">
          <mxGeometry x="545" y="50" width="20" height="20" as="geometry" />
        </mxCell>
        <mxCell id="n47eNlnoth5snDdlfKDB-167" value="&lt;p style=&quot;line-height: 30%; font-size: 5px;&quot;&gt;Dados do&lt;/p&gt;&lt;p style=&quot;line-height: 30%; font-size: 5px;&quot;&gt;funcionário&lt;/p&gt;" style="text;html=1;align=center;verticalAlign=middle;resizable=0;points=[];autosize=1;strokeColor=none;fillColor=none;fontSize=9;container=0;" parent="dNxyNK7c78bLwvsdeMH5-20" vertex="1">
          <mxGeometry x="406" y="89" width="50" height="30" as="geometry" />
        </mxCell>
        <mxCell id="dNxyNK7c78bLwvsdeMH5-21" value="Sistema" style="swimlane;html=1;startSize=20;horizontal=0;container=0;" parent="1" vertex="1">
          <mxGeometry x="-360" y="240" width="1840" height="120" as="geometry" />
        </mxCell>
        <mxCell id="n47eNlnoth5snDdlfKDB-112" value="Buscar&lt;div&gt;funcionário&lt;/div&gt;" style="rounded=1;whiteSpace=wrap;html=1;fontFamily=Helvetica;fontSize=9;align=center;fillColor=#dae8fc;strokeColor=#6c8ebf;container=0;" parent="dNxyNK7c78bLwvsdeMH5-21" vertex="1">
          <mxGeometry x="120" y="30" width="90" height="60" as="geometry" />
        </mxCell>
        <mxCell id="n47eNlnoth5snDdlfKDB-113" style="edgeStyle=orthogonalEdgeStyle;rounded=0;orthogonalLoop=1;jettySize=auto;html=1;" parent="dNxyNK7c78bLwvsdeMH5-21" source="n47eNlnoth5snDdlfKDB-115" edge="1">
          <mxGeometry relative="1" as="geometry">
            <mxPoint x="120" y="60" as="targetPoint" />
          </mxGeometry>
        </mxCell>
        <mxCell id="n47eNlnoth5snDdlfKDB-114" style="edgeStyle=orthogonalEdgeStyle;rounded=0;orthogonalLoop=1;jettySize=auto;html=1;exitX=1;exitY=0.5;exitDx=0;exitDy=0;" parent="dNxyNK7c78bLwvsdeMH5-21" edge="1">
          <mxGeometry relative="1" as="geometry">
            <mxPoint x="210" y="60" as="sourcePoint" />
            <Array as="points">
              <mxPoint x="220" y="60.5" />
              <mxPoint x="220" y="60.5" />
            </Array>
            <mxPoint x="230" y="60" as="targetPoint" />
          </mxGeometry>
        </mxCell>
        <mxCell id="n47eNlnoth5snDdlfKDB-115" value="" style="ellipse;whiteSpace=wrap;html=1;fillColor=#d5e8d4;strokeColor=#82b366;container=0;" parent="dNxyNK7c78bLwvsdeMH5-21" vertex="1">
          <mxGeometry x="70" y="45" width="30" height="30" as="geometry" />
        </mxCell>
        <mxCell id="n47eNlnoth5snDdlfKDB-116" value="" style="rounded=1;whiteSpace=wrap;html=1;absoluteArcSize=1;arcSize=2;strokeWidth=1;fillColor=#d5e8d4;strokeColor=#82b366;container=0;" parent="dNxyNK7c78bLwvsdeMH5-21" vertex="1">
          <mxGeometry x="75" y="52" width="20" height="15" as="geometry" />
        </mxCell>
        <mxCell id="n47eNlnoth5snDdlfKDB-117" value="" style="strokeWidth=1;html=1;shape=mxgraph.flowchart.extract_or_measurement;whiteSpace=wrap;rotation=-180;fillColor=#d5e8d4;strokeColor=#82b366;container=0;" parent="dNxyNK7c78bLwvsdeMH5-21" vertex="1">
          <mxGeometry x="75.5" y="52" width="19" height="8.57142857142857" as="geometry" />
        </mxCell>
        <mxCell id="n47eNlnoth5snDdlfKDB-118" value="" style="ellipse;whiteSpace=wrap;html=1;fillColor=#f8cecc;strokeColor=#b85450;container=0;" parent="dNxyNK7c78bLwvsdeMH5-21" vertex="1">
          <mxGeometry x="230" y="45" width="30" height="30" as="geometry" />
        </mxCell>
        <mxCell id="n47eNlnoth5snDdlfKDB-119" value="" style="rounded=1;whiteSpace=wrap;html=1;absoluteArcSize=1;arcSize=2;strokeWidth=1;fillColor=#f8cecc;strokeColor=#b85450;container=0;" parent="dNxyNK7c78bLwvsdeMH5-21" vertex="1">
          <mxGeometry x="235" y="52.5" width="20" height="15" as="geometry" />
        </mxCell>
        <mxCell id="n47eNlnoth5snDdlfKDB-120" value="" style="strokeWidth=1;html=1;shape=mxgraph.flowchart.extract_or_measurement;whiteSpace=wrap;rotation=-180;fillColor=#f8cecc;strokeColor=#b85450;container=0;" parent="dNxyNK7c78bLwvsdeMH5-21" vertex="1">
          <mxGeometry x="235.5" y="52.5" width="19" height="8.57142857142857" as="geometry" />
        </mxCell>
        <mxCell id="n47eNlnoth5snDdlfKDB-142" value="&lt;p style=&quot;line-height: 30%; font-size: 5px;&quot;&gt;Dados do&lt;/p&gt;&lt;p style=&quot;line-height: 30%; font-size: 5px;&quot;&gt;funcionário&lt;/p&gt;" style="text;html=1;align=center;verticalAlign=middle;resizable=0;points=[];autosize=1;strokeColor=none;fillColor=none;fontSize=9;container=0;" parent="dNxyNK7c78bLwvsdeMH5-21" vertex="1">
          <mxGeometry x="181" y="-4" width="50" height="30" as="geometry" />
        </mxCell>
        <mxCell id="n47eNlnoth5snDdlfKDB-157" value="Inserir&lt;div&gt;funcionário&lt;/div&gt;" style="rounded=1;whiteSpace=wrap;html=1;fontFamily=Helvetica;fontSize=9;align=center;fillColor=#dae8fc;strokeColor=#6c8ebf;container=0;" parent="dNxyNK7c78bLwvsdeMH5-21" vertex="1">
          <mxGeometry x="370" y="30" width="90" height="60" as="geometry" />
        </mxCell>
        <mxCell id="n47eNlnoth5snDdlfKDB-158" style="edgeStyle=orthogonalEdgeStyle;rounded=0;orthogonalLoop=1;jettySize=auto;html=1;" parent="dNxyNK7c78bLwvsdeMH5-21" source="n47eNlnoth5snDdlfKDB-160" edge="1">
          <mxGeometry relative="1" as="geometry">
            <mxPoint x="370" y="60" as="targetPoint" />
          </mxGeometry>
        </mxCell>
        <mxCell id="n47eNlnoth5snDdlfKDB-159" style="edgeStyle=orthogonalEdgeStyle;rounded=0;orthogonalLoop=1;jettySize=auto;html=1;exitX=1;exitY=0.5;exitDx=0;exitDy=0;" parent="dNxyNK7c78bLwvsdeMH5-21" edge="1">
          <mxGeometry relative="1" as="geometry">
            <mxPoint x="460" y="60" as="sourcePoint" />
            <Array as="points">
              <mxPoint x="470" y="60.5" />
              <mxPoint x="470" y="60.5" />
            </Array>
            <mxPoint x="480" y="60" as="targetPoint" />
          </mxGeometry>
        </mxCell>
        <mxCell id="n47eNlnoth5snDdlfKDB-160" value="" style="ellipse;whiteSpace=wrap;html=1;fillColor=#d5e8d4;strokeColor=#82b366;container=0;" parent="dNxyNK7c78bLwvsdeMH5-21" vertex="1">
          <mxGeometry x="320" y="45" width="30" height="30" as="geometry" />
        </mxCell>
        <mxCell id="n47eNlnoth5snDdlfKDB-161" value="" style="rounded=1;whiteSpace=wrap;html=1;absoluteArcSize=1;arcSize=2;strokeWidth=1;fillColor=#d5e8d4;strokeColor=#82b366;container=0;" parent="dNxyNK7c78bLwvsdeMH5-21" vertex="1">
          <mxGeometry x="325" y="52" width="20" height="15" as="geometry" />
        </mxCell>
        <mxCell id="n47eNlnoth5snDdlfKDB-162" value="" style="strokeWidth=1;html=1;shape=mxgraph.flowchart.extract_or_measurement;whiteSpace=wrap;rotation=-180;fillColor=#d5e8d4;strokeColor=#82b366;container=0;" parent="dNxyNK7c78bLwvsdeMH5-21" vertex="1">
          <mxGeometry x="325.5" y="52" width="19" height="8.57142857142857" as="geometry" />
        </mxCell>
        <mxCell id="n47eNlnoth5snDdlfKDB-163" value="" style="ellipse;whiteSpace=wrap;html=1;fillColor=#f8cecc;strokeColor=#b85450;container=0;" parent="dNxyNK7c78bLwvsdeMH5-21" vertex="1">
          <mxGeometry x="480" y="45" width="30" height="30" as="geometry" />
        </mxCell>
        <mxCell id="n47eNlnoth5snDdlfKDB-164" value="" style="rounded=1;whiteSpace=wrap;html=1;absoluteArcSize=1;arcSize=2;strokeWidth=1;fillColor=#f8cecc;strokeColor=#b85450;container=0;" parent="dNxyNK7c78bLwvsdeMH5-21" vertex="1">
          <mxGeometry x="485" y="52.5" width="20" height="15" as="geometry" />
        </mxCell>
        <mxCell id="n47eNlnoth5snDdlfKDB-165" value="" style="strokeWidth=1;html=1;shape=mxgraph.flowchart.extract_or_measurement;whiteSpace=wrap;rotation=-180;fillColor=#f8cecc;strokeColor=#b85450;container=0;" parent="dNxyNK7c78bLwvsdeMH5-21" vertex="1">
          <mxGeometry x="485.5" y="52.5" width="19" height="8.57142857142857" as="geometry" />
        </mxCell>
        <mxCell id="nLnUjlvC0J46Ff9aY2Y2-36" style="edgeStyle=orthogonalEdgeStyle;rounded=0;orthogonalLoop=1;jettySize=auto;html=1;exitX=1;exitY=0.5;exitDx=0;exitDy=0;" parent="1" source="dNxyNK7c78bLwvsdeMH5-24" edge="1">
          <mxGeometry relative="1" as="geometry">
            <mxPoint x="400.0000000000001" y="179.97297297297297" as="targetPoint" />
          </mxGeometry>
        </mxCell>
        <mxCell id="nLnUjlvC0J46Ff9aY2Y2-42" value="Buscar por nome&lt;div&gt;do produto químico&lt;/div&gt;" style="rounded=1;whiteSpace=wrap;html=1;fontFamily=Helvetica;fontSize=9;align=center;fillColor=#dae8fc;strokeColor=#6c8ebf;container=0;" parent="1" vertex="1">
          <mxGeometry x="480" y="150" width="90" height="60" as="geometry" />
        </mxCell>
        <mxCell id="nLnUjlvC0J46Ff9aY2Y2-43" style="edgeStyle=orthogonalEdgeStyle;rounded=0;orthogonalLoop=1;jettySize=auto;html=1;exitX=1;exitY=0.5;exitDx=0;exitDy=0;entryX=0;entryY=0.5;entryDx=0;entryDy=0;" parent="1" source="nLnUjlvC0J46Ff9aY2Y2-39" target="nLnUjlvC0J46Ff9aY2Y2-42" edge="1">
          <mxGeometry relative="1" as="geometry" />
        </mxCell>
        <mxCell id="nLnUjlvC0J46Ff9aY2Y2-47" style="edgeStyle=orthogonalEdgeStyle;rounded=0;orthogonalLoop=1;jettySize=auto;html=1;exitX=1;exitY=0.5;exitDx=0;exitDy=0;entryX=0;entryY=0.5;entryDx=0;entryDy=0;" parent="1" target="nLnUjlvC0J46Ff9aY2Y2-49" edge="1">
          <mxGeometry relative="1" as="geometry">
            <mxPoint x="1370" y="180" as="sourcePoint" />
            <Array as="points">
              <mxPoint x="1390" y="180" />
              <mxPoint x="1390" y="180" />
            </Array>
          </mxGeometry>
        </mxCell>
        <mxCell id="nLnUjlvC0J46Ff9aY2Y2-50" value="&lt;p style=&quot;line-height: 30%; font-size: 10px;&quot;&gt;2 segundos&lt;/p&gt;" style="text;html=1;align=center;verticalAlign=middle;resizable=0;points=[];autosize=1;strokeColor=none;fillColor=none;fontSize=10;container=0;" parent="1" vertex="1">
          <mxGeometry x="375" y="184" width="80" height="40" as="geometry" />
        </mxCell>
        <mxCell id="n47eNlnoth5snDdlfKDB-39" value="&lt;p style=&quot;line-height: 30%; font-size: 5px;&quot;&gt;Nome do&lt;/p&gt;&lt;p style=&quot;line-height: 30%; font-size: 5px;&quot;&gt;produto&lt;/p&gt;" style="text;html=1;align=center;verticalAlign=middle;resizable=0;points=[];autosize=1;strokeColor=none;fillColor=none;fontSize=9;container=0;" parent="1" vertex="1">
          <mxGeometry x="518" y="206" width="40" height="30" as="geometry" />
        </mxCell>
        <mxCell id="n47eNlnoth5snDdlfKDB-40" style="edgeStyle=orthogonalEdgeStyle;rounded=0;orthogonalLoop=1;jettySize=auto;html=1;exitX=1;exitY=0.5;exitDx=0;exitDy=0;" parent="1" edge="1">
          <mxGeometry relative="1" as="geometry">
            <mxPoint x="620.0000000000001" y="179.97297297297297" as="targetPoint" />
            <mxPoint x="570" y="180" as="sourcePoint" />
          </mxGeometry>
        </mxCell>
        <mxCell id="n47eNlnoth5snDdlfKDB-45" style="edgeStyle=orthogonalEdgeStyle;rounded=0;orthogonalLoop=1;jettySize=auto;html=1;exitX=1;exitY=0.5;exitDx=0;exitDy=0;entryX=0;entryY=0.5;entryDx=0;entryDy=0;" parent="1" source="n47eNlnoth5snDdlfKDB-43" edge="1">
          <mxGeometry relative="1" as="geometry">
            <mxPoint x="700" y="180" as="targetPoint" />
          </mxGeometry>
        </mxCell>
        <mxCell id="n47eNlnoth5snDdlfKDB-46" value="&lt;p style=&quot;line-height: 30%; font-size: 10px;&quot;&gt;2 segundos&lt;/p&gt;" style="text;html=1;align=center;verticalAlign=middle;resizable=0;points=[];autosize=1;strokeColor=none;fillColor=none;fontSize=10;container=0;" parent="1" vertex="1">
          <mxGeometry x="595" y="184" width="80" height="40" as="geometry" />
        </mxCell>
        <mxCell id="n47eNlnoth5snDdlfKDB-47" value="Selecionar categoria&lt;div&gt;de informação desejada&lt;/div&gt;" style="rounded=1;whiteSpace=wrap;html=1;fontFamily=Helvetica;fontSize=9;align=center;fillColor=#dae8fc;strokeColor=#6c8ebf;container=0;" parent="1" vertex="1">
          <mxGeometry x="700" y="150" width="90" height="60" as="geometry" />
        </mxCell>
        <mxCell id="n47eNlnoth5snDdlfKDB-64" value="&lt;p style=&quot;line-height: 30%; font-size: 5px;&quot;&gt;Categoria&lt;/p&gt;&lt;p style=&quot;line-height: 30%; font-size: 5px;&quot;&gt;desejada&lt;/p&gt;" style="text;html=1;align=center;verticalAlign=middle;resizable=0;points=[];autosize=1;strokeColor=none;fillColor=none;fontSize=9;container=0;" parent="1" vertex="1">
          <mxGeometry x="735" y="206" width="50" height="30" as="geometry" />
        </mxCell>
        <mxCell id="n47eNlnoth5snDdlfKDB-82" style="edgeStyle=orthogonalEdgeStyle;shape=connector;curved=0;rounded=1;orthogonalLoop=1;jettySize=auto;html=1;exitX=1;exitY=0.5;exitDx=0;exitDy=0;entryX=0;entryY=0.5;entryDx=0;entryDy=0;strokeColor=default;align=center;verticalAlign=middle;fontFamily=Helvetica;fontSize=11;fontColor=default;labelBackgroundColor=default;startArrow=none;startFill=0;endArrow=classic;endFill=1;" parent="1" source="n47eNlnoth5snDdlfKDB-65" target="n47eNlnoth5snDdlfKDB-81" edge="1">
          <mxGeometry relative="1" as="geometry" />
        </mxCell>
        <mxCell id="n47eNlnoth5snDdlfKDB-85" value="Sim" style="edgeLabel;html=1;align=center;verticalAlign=middle;resizable=0;points=[];fontFamily=Helvetica;fontSize=7;fontColor=default;labelBackgroundColor=default;container=0;" parent="n47eNlnoth5snDdlfKDB-82" vertex="1" connectable="0">
          <mxGeometry x="-0.6267" relative="1" as="geometry">
            <mxPoint x="4" y="-6" as="offset" />
          </mxGeometry>
        </mxCell>
        <mxCell id="n47eNlnoth5snDdlfKDB-107" style="edgeStyle=orthogonalEdgeStyle;shape=connector;curved=0;rounded=1;orthogonalLoop=1;jettySize=auto;html=1;exitX=0.5;exitY=0;exitDx=0;exitDy=0;entryX=0.5;entryY=0;entryDx=0;entryDy=0;strokeColor=default;align=center;verticalAlign=middle;fontFamily=Helvetica;fontSize=11;fontColor=default;labelBackgroundColor=default;startArrow=none;startFill=0;endArrow=classic;endFill=1;" parent="1" source="n47eNlnoth5snDdlfKDB-65" target="n47eNlnoth5snDdlfKDB-104" edge="1">
          <mxGeometry relative="1" as="geometry">
            <Array as="points">
              <mxPoint x="980" y="130" />
              <mxPoint x="1325" y="130" />
            </Array>
          </mxGeometry>
        </mxCell>
        <mxCell id="n47eNlnoth5snDdlfKDB-65" value="&lt;div style=&quot;line-height: 70%;&quot;&gt;&lt;font style=&quot;font-size: 6px; line-height: 70%;&quot;&gt;Categoria possui&lt;/font&gt;&lt;div&gt;&lt;font style=&quot;font-size: 6px; line-height: 70%;&quot;&gt;subcategorias?&lt;/font&gt;&lt;/div&gt;&lt;/div&gt;" style="rhombus;whiteSpace=wrap;html=1;fontFamily=Helvetica;fontSize=11;labelBackgroundColor=none;fillColor=#fff2cc;strokeColor=#d6b656;container=0;" parent="1" vertex="1">
          <mxGeometry x="940" y="160" width="80" height="40" as="geometry" />
        </mxCell>
        <mxCell id="n47eNlnoth5snDdlfKDB-81" value="Selecionar subcategoria&lt;div&gt;de informação desejada&lt;/div&gt;" style="rounded=1;whiteSpace=wrap;html=1;fontFamily=Helvetica;fontSize=9;align=center;fillColor=#dae8fc;strokeColor=#6c8ebf;container=0;" parent="1" vertex="1">
          <mxGeometry x="1060" y="150" width="90" height="60" as="geometry" />
        </mxCell>
        <mxCell id="n47eNlnoth5snDdlfKDB-92" value="&lt;p style=&quot;line-height: 30%; font-size: 10px;&quot;&gt;2 segundos&lt;/p&gt;" style="text;html=1;align=center;verticalAlign=middle;resizable=0;points=[];autosize=1;strokeColor=none;fillColor=none;fontSize=10;container=0;" parent="1" vertex="1">
          <mxGeometry x="840" y="184" width="80" height="40" as="geometry" />
        </mxCell>
        <mxCell id="n47eNlnoth5snDdlfKDB-93" style="edgeStyle=orthogonalEdgeStyle;shape=connector;curved=0;rounded=1;orthogonalLoop=1;jettySize=auto;html=1;exitX=1;exitY=0.5;exitDx=0;exitDy=0;entryX=0;entryY=0.5;entryDx=0;entryDy=0;strokeColor=default;align=center;verticalAlign=middle;fontFamily=Helvetica;fontSize=11;fontColor=default;labelBackgroundColor=default;startArrow=none;startFill=0;endArrow=classic;endFill=1;" parent="1" source="n47eNlnoth5snDdlfKDB-90" target="n47eNlnoth5snDdlfKDB-65" edge="1">
          <mxGeometry relative="1" as="geometry" />
        </mxCell>
        <mxCell id="n47eNlnoth5snDdlfKDB-97" style="edgeStyle=orthogonalEdgeStyle;rounded=0;orthogonalLoop=1;jettySize=auto;html=1;exitX=1;exitY=0.5;exitDx=0;exitDy=0;" parent="1" edge="1">
          <mxGeometry relative="1" as="geometry">
            <mxPoint x="1200" y="179.97297297297297" as="targetPoint" />
            <mxPoint x="1150" y="180" as="sourcePoint" />
          </mxGeometry>
        </mxCell>
        <mxCell id="n47eNlnoth5snDdlfKDB-102" style="edgeStyle=orthogonalEdgeStyle;rounded=0;orthogonalLoop=1;jettySize=auto;html=1;exitX=1;exitY=0.5;exitDx=0;exitDy=0;entryX=0;entryY=0.5;entryDx=0;entryDy=0;" parent="1" source="n47eNlnoth5snDdlfKDB-100" edge="1">
          <mxGeometry relative="1" as="geometry">
            <mxPoint x="1280" y="180" as="targetPoint" />
          </mxGeometry>
        </mxCell>
        <mxCell id="n47eNlnoth5snDdlfKDB-103" value="&lt;p style=&quot;line-height: 30%; font-size: 10px;&quot;&gt;2 segundos&lt;/p&gt;" style="text;html=1;align=center;verticalAlign=middle;resizable=0;points=[];autosize=1;strokeColor=none;fillColor=none;fontSize=10;container=0;" parent="1" vertex="1">
          <mxGeometry x="1175" y="184" width="80" height="40" as="geometry" />
        </mxCell>
        <mxCell id="n47eNlnoth5snDdlfKDB-104" value="Visualizar informação&lt;div&gt;de segurança do&lt;/div&gt;&lt;div&gt;produto químico&lt;/div&gt;" style="rounded=1;whiteSpace=wrap;html=1;fontFamily=Helvetica;fontSize=9;align=center;fillColor=#dae8fc;strokeColor=#6c8ebf;container=0;" parent="1" vertex="1">
          <mxGeometry x="1280" y="150" width="90" height="60" as="geometry" />
        </mxCell>
        <mxCell id="n47eNlnoth5snDdlfKDB-109" value="Não" style="edgeLabel;html=1;align=center;verticalAlign=middle;resizable=0;points=[];fontFamily=Helvetica;fontSize=7;fontColor=default;labelBackgroundColor=default;container=0;" parent="1" vertex="1" connectable="0">
          <mxGeometry x="990.0009756097559" y="150" as="geometry" />
        </mxCell>
        <mxCell id="nLnUjlvC0J46Ff9aY2Y2-38" value="" style="ellipse;whiteSpace=wrap;html=1;fillColor=#d5e8d4;strokeColor=#82b366;container=0;" parent="1" vertex="1">
          <mxGeometry x="400" y="165" width="30" height="30" as="geometry" />
        </mxCell>
        <mxCell id="nLnUjlvC0J46Ff9aY2Y2-39" value="" style="ellipse;whiteSpace=wrap;html=1;fillColor=#f5f5f5;strokeColor=#666666;fontColor=#333333;container=0;" parent="1" vertex="1">
          <mxGeometry x="400" y="165" width="30" height="30" as="geometry" />
        </mxCell>
        <mxCell id="nLnUjlvC0J46Ff9aY2Y2-40" value="" style="ellipse;whiteSpace=wrap;html=1;fillColor=#f5f5f5;strokeColor=#666666;fontColor=#333333;container=0;" parent="1" vertex="1">
          <mxGeometry x="405" y="170" width="20" height="20" as="geometry" />
        </mxCell>
        <mxCell id="nLnUjlvC0J46Ff9aY2Y2-49" value="" style="ellipse;whiteSpace=wrap;html=1;fillColor=#f8cecc;strokeColor=#b85450;container=0;" parent="1" vertex="1">
          <mxGeometry x="1410" y="165" width="30" height="30" as="geometry" />
        </mxCell>
        <mxCell id="n47eNlnoth5snDdlfKDB-42" value="" style="ellipse;whiteSpace=wrap;html=1;fillColor=#d5e8d4;strokeColor=#82b366;container=0;" parent="1" vertex="1">
          <mxGeometry x="620" y="165" width="30" height="30" as="geometry" />
        </mxCell>
        <mxCell id="n47eNlnoth5snDdlfKDB-43" value="" style="ellipse;whiteSpace=wrap;html=1;fillColor=#f5f5f5;strokeColor=#666666;fontColor=#333333;container=0;" parent="1" vertex="1">
          <mxGeometry x="620" y="165" width="30" height="30" as="geometry" />
        </mxCell>
        <mxCell id="n47eNlnoth5snDdlfKDB-44" value="" style="ellipse;whiteSpace=wrap;html=1;fillColor=#f5f5f5;strokeColor=#666666;fontColor=#333333;container=0;" parent="1" vertex="1">
          <mxGeometry x="625" y="170" width="20" height="20" as="geometry" />
        </mxCell>
        <mxCell id="n47eNlnoth5snDdlfKDB-89" value="" style="ellipse;whiteSpace=wrap;html=1;fillColor=#d5e8d4;strokeColor=#82b366;container=0;" parent="1" vertex="1">
          <mxGeometry x="865" y="165" width="30" height="30" as="geometry" />
        </mxCell>
        <mxCell id="n47eNlnoth5snDdlfKDB-90" value="" style="ellipse;whiteSpace=wrap;html=1;fillColor=#f5f5f5;strokeColor=#666666;fontColor=#333333;container=0;" parent="1" vertex="1">
          <mxGeometry x="865" y="165" width="30" height="30" as="geometry" />
        </mxCell>
        <mxCell id="n47eNlnoth5snDdlfKDB-91" value="" style="ellipse;whiteSpace=wrap;html=1;fillColor=#f5f5f5;strokeColor=#666666;fontColor=#333333;container=0;" parent="1" vertex="1">
          <mxGeometry x="870" y="170" width="20" height="20" as="geometry" />
        </mxCell>
        <mxCell id="n47eNlnoth5snDdlfKDB-99" value="" style="ellipse;whiteSpace=wrap;html=1;fillColor=#d5e8d4;strokeColor=#82b366;container=0;" parent="1" vertex="1">
          <mxGeometry x="1200" y="165" width="30" height="30" as="geometry" />
        </mxCell>
        <mxCell id="n47eNlnoth5snDdlfKDB-100" value="" style="ellipse;whiteSpace=wrap;html=1;fillColor=#f5f5f5;strokeColor=#666666;fontColor=#333333;container=0;" parent="1" vertex="1">
          <mxGeometry x="1200" y="165" width="30" height="30" as="geometry" />
        </mxCell>
        <mxCell id="n47eNlnoth5snDdlfKDB-101" value="" style="ellipse;whiteSpace=wrap;html=1;fillColor=#f5f5f5;strokeColor=#666666;fontColor=#333333;container=0;" parent="1" vertex="1">
          <mxGeometry x="1205" y="170" width="20" height="20" as="geometry" />
        </mxCell>
        <mxCell id="nLnUjlvC0J46Ff9aY2Y2-1" value="Recuperar lista&lt;div&gt;de produtos&lt;/div&gt;&lt;div&gt;químicos&lt;/div&gt;" style="rounded=1;whiteSpace=wrap;html=1;fontFamily=Helvetica;fontSize=9;align=center;fillColor=#dae8fc;strokeColor=#6c8ebf;container=0;" parent="1" vertex="1">
          <mxGeometry x="260" y="270" width="90" height="60" as="geometry" />
        </mxCell>
        <mxCell id="nLnUjlvC0J46Ff9aY2Y2-15" style="edgeStyle=orthogonalEdgeStyle;rounded=0;orthogonalLoop=1;jettySize=auto;html=1;" parent="1" source="nLnUjlvC0J46Ff9aY2Y2-2" edge="1">
          <mxGeometry relative="1" as="geometry">
            <mxPoint x="260" y="300" as="targetPoint" />
          </mxGeometry>
        </mxCell>
        <mxCell id="nLnUjlvC0J46Ff9aY2Y2-35" value="&lt;p style=&quot;line-height: 30%; font-size: 5px;&quot;&gt;Lista de produtos&lt;/p&gt;&lt;p style=&quot;line-height: 30%; font-size: 5px;&quot;&gt;químicos&lt;/p&gt;" style="text;html=1;align=center;verticalAlign=middle;resizable=0;points=[];autosize=1;strokeColor=none;fillColor=none;fontSize=9;container=0;" parent="1" vertex="1">
          <mxGeometry x="320" y="240" width="60" height="30" as="geometry" />
        </mxCell>
        <mxCell id="n47eNlnoth5snDdlfKDB-13" value="Recuperar categorias de informações de segurança do produto&lt;div&gt;especificado&lt;/div&gt;" style="rounded=1;whiteSpace=wrap;html=1;fontFamily=Helvetica;fontSize=9;align=center;fillColor=#dae8fc;strokeColor=#6c8ebf;container=0;" parent="1" vertex="1">
          <mxGeometry x="480" y="270" width="90" height="60" as="geometry" />
        </mxCell>
        <mxCell id="n47eNlnoth5snDdlfKDB-15" style="edgeStyle=orthogonalEdgeStyle;rounded=0;orthogonalLoop=1;jettySize=auto;html=1;exitX=1;exitY=0.5;exitDx=0;exitDy=0;" parent="1" edge="1">
          <mxGeometry relative="1" as="geometry">
            <mxPoint x="350" y="300" as="sourcePoint" />
            <Array as="points">
              <mxPoint x="360" y="300.5" />
              <mxPoint x="360" y="300.5" />
            </Array>
            <mxPoint x="370" y="300" as="targetPoint" />
          </mxGeometry>
        </mxCell>
        <mxCell id="n47eNlnoth5snDdlfKDB-26" style="edgeStyle=orthogonalEdgeStyle;rounded=0;orthogonalLoop=1;jettySize=auto;html=1;" parent="1" source="n47eNlnoth5snDdlfKDB-22" edge="1">
          <mxGeometry relative="1" as="geometry">
            <mxPoint x="480" y="299.5" as="targetPoint" />
          </mxGeometry>
        </mxCell>
        <mxCell id="n47eNlnoth5snDdlfKDB-33" style="edgeStyle=orthogonalEdgeStyle;rounded=0;orthogonalLoop=1;jettySize=auto;html=1;exitX=1;exitY=0.5;exitDx=0;exitDy=0;" parent="1" edge="1">
          <mxGeometry relative="1" as="geometry">
            <mxPoint x="570" y="299.5" as="sourcePoint" />
            <Array as="points">
              <mxPoint x="580" y="300" />
              <mxPoint x="580" y="300" />
            </Array>
            <mxPoint x="590" y="299.5" as="targetPoint" />
          </mxGeometry>
        </mxCell>
        <mxCell id="n47eNlnoth5snDdlfKDB-50" value="Recuperar informações da categoria escolhida" style="rounded=1;whiteSpace=wrap;html=1;fontFamily=Helvetica;fontSize=9;align=center;fillColor=#dae8fc;strokeColor=#6c8ebf;container=0;" parent="1" vertex="1">
          <mxGeometry x="700" y="269.5" width="90" height="60" as="geometry" />
        </mxCell>
        <mxCell id="n47eNlnoth5snDdlfKDB-56" style="edgeStyle=orthogonalEdgeStyle;rounded=0;orthogonalLoop=1;jettySize=auto;html=1;" parent="1" source="n47eNlnoth5snDdlfKDB-52" edge="1">
          <mxGeometry relative="1" as="geometry">
            <mxPoint x="700" y="299" as="targetPoint" />
          </mxGeometry>
        </mxCell>
        <mxCell id="n47eNlnoth5snDdlfKDB-57" style="edgeStyle=orthogonalEdgeStyle;rounded=0;orthogonalLoop=1;jettySize=auto;html=1;exitX=1;exitY=0.5;exitDx=0;exitDy=0;" parent="1" edge="1">
          <mxGeometry relative="1" as="geometry">
            <mxPoint x="790" y="299" as="sourcePoint" />
            <Array as="points">
              <mxPoint x="800" y="299.5" />
              <mxPoint x="800" y="299.5" />
            </Array>
            <mxPoint x="810" y="299" as="targetPoint" />
          </mxGeometry>
        </mxCell>
        <mxCell id="n47eNlnoth5snDdlfKDB-62" value="&lt;p style=&quot;line-height: 30%; font-size: 5px;&quot;&gt;Categorias de&lt;/p&gt;&lt;p style=&quot;line-height: 30%; font-size: 5px;&quot;&gt;informação&lt;span style=&quot;background-color: transparent; color: light-dark(rgb(0, 0, 0), rgb(255, 255, 255));&quot;&gt;&amp;nbsp;&lt;/span&gt;&lt;span style=&quot;background-color: transparent; color: light-dark(rgb(0, 0, 0), rgb(255, 255, 255));&quot;&gt;do&lt;/span&gt;&lt;/p&gt;&lt;p style=&quot;line-height: 30%; font-size: 5px;&quot;&gt;produto&lt;/p&gt;" style="text;html=1;align=center;verticalAlign=middle;resizable=0;points=[];autosize=1;strokeColor=none;fillColor=none;fontSize=9;container=0;" parent="1" vertex="1">
          <mxGeometry x="540" y="234.5" width="60" height="40" as="geometry" />
        </mxCell>
        <mxCell id="n47eNlnoth5snDdlfKDB-67" value="&lt;p style=&quot;line-height: 30%; font-size: 5px;&quot;&gt;Informações da&lt;/p&gt;&lt;p style=&quot;line-height: 30%; font-size: 5px;&quot;&gt;categoria&lt;/p&gt;" style="text;html=1;align=center;verticalAlign=middle;resizable=0;points=[];autosize=1;strokeColor=none;fillColor=none;fontSize=9;container=0;" parent="1" vertex="1">
          <mxGeometry x="772" y="244.5" width="60" height="30" as="geometry" />
        </mxCell>
        <mxCell id="n47eNlnoth5snDdlfKDB-69" value="Recuperar informações da subcategoria escolhida" style="rounded=1;whiteSpace=wrap;html=1;fontFamily=Helvetica;fontSize=9;align=center;fillColor=#dae8fc;strokeColor=#6c8ebf;container=0;" parent="1" vertex="1">
          <mxGeometry x="1060" y="269" width="90" height="60" as="geometry" />
        </mxCell>
        <mxCell id="n47eNlnoth5snDdlfKDB-75" style="edgeStyle=orthogonalEdgeStyle;rounded=0;orthogonalLoop=1;jettySize=auto;html=1;" parent="1" source="n47eNlnoth5snDdlfKDB-71" edge="1">
          <mxGeometry relative="1" as="geometry">
            <mxPoint x="1060" y="298.5" as="targetPoint" />
          </mxGeometry>
        </mxCell>
        <mxCell id="n47eNlnoth5snDdlfKDB-76" style="edgeStyle=orthogonalEdgeStyle;rounded=0;orthogonalLoop=1;jettySize=auto;html=1;exitX=1;exitY=0.5;exitDx=0;exitDy=0;" parent="1" edge="1">
          <mxGeometry relative="1" as="geometry">
            <mxPoint x="1150" y="298.5" as="sourcePoint" />
            <Array as="points">
              <mxPoint x="1160" y="299" />
              <mxPoint x="1160" y="299" />
            </Array>
            <mxPoint x="1170" y="298.5" as="targetPoint" />
          </mxGeometry>
        </mxCell>
        <mxCell id="n47eNlnoth5snDdlfKDB-106" value="&lt;p style=&quot;line-height: 30%; font-size: 5px;&quot;&gt;Informações da&lt;/p&gt;&lt;p style=&quot;line-height: 30%; font-size: 5px;&quot;&gt;subcategoria&lt;/p&gt;" style="text;html=1;align=center;verticalAlign=middle;resizable=0;points=[];autosize=1;strokeColor=none;fillColor=none;fontSize=9;container=0;" parent="1" vertex="1">
          <mxGeometry x="1120" y="240" width="60" height="30" as="geometry" />
        </mxCell>
        <mxCell id="nLnUjlvC0J46Ff9aY2Y2-2" value="" style="ellipse;whiteSpace=wrap;html=1;fillColor=#d5e8d4;strokeColor=#82b366;container=0;" parent="1" vertex="1">
          <mxGeometry x="210" y="285" width="30" height="30" as="geometry" />
        </mxCell>
        <mxCell id="nLnUjlvC0J46Ff9aY2Y2-4" value="" style="rounded=1;whiteSpace=wrap;html=1;absoluteArcSize=1;arcSize=2;strokeWidth=1;fillColor=#d5e8d4;strokeColor=#82b366;container=0;" parent="1" vertex="1">
          <mxGeometry x="215" y="292" width="20" height="15" as="geometry" />
        </mxCell>
        <mxCell id="nLnUjlvC0J46Ff9aY2Y2-3" value="" style="strokeWidth=1;html=1;shape=mxgraph.flowchart.extract_or_measurement;whiteSpace=wrap;rotation=-180;fillColor=#d5e8d4;strokeColor=#82b366;container=0;" parent="1" vertex="1">
          <mxGeometry x="215.5" y="292" width="19" height="8.57142857142857" as="geometry" />
        </mxCell>
        <mxCell id="n47eNlnoth5snDdlfKDB-17" value="" style="ellipse;whiteSpace=wrap;html=1;fillColor=#f8cecc;strokeColor=#b85450;container=0;" parent="1" vertex="1">
          <mxGeometry x="370" y="285" width="30" height="30" as="geometry" />
        </mxCell>
        <mxCell id="n47eNlnoth5snDdlfKDB-18" value="" style="rounded=1;whiteSpace=wrap;html=1;absoluteArcSize=1;arcSize=2;strokeWidth=1;fillColor=#f8cecc;strokeColor=#b85450;container=0;" parent="1" vertex="1">
          <mxGeometry x="375" y="292.5" width="20" height="15" as="geometry" />
        </mxCell>
        <mxCell id="n47eNlnoth5snDdlfKDB-19" value="" style="strokeWidth=1;html=1;shape=mxgraph.flowchart.extract_or_measurement;whiteSpace=wrap;rotation=-180;fillColor=#f8cecc;strokeColor=#b85450;container=0;" parent="1" vertex="1">
          <mxGeometry x="375.5" y="292.5" width="19" height="8.57142857142857" as="geometry" />
        </mxCell>
        <mxCell id="n47eNlnoth5snDdlfKDB-22" value="" style="ellipse;whiteSpace=wrap;html=1;fillColor=#d5e8d4;strokeColor=#82b366;container=0;" parent="1" vertex="1">
          <mxGeometry x="430" y="284.5" width="30" height="30" as="geometry" />
        </mxCell>
        <mxCell id="n47eNlnoth5snDdlfKDB-24" value="" style="rounded=1;whiteSpace=wrap;html=1;absoluteArcSize=1;arcSize=2;strokeWidth=1;fillColor=#d5e8d4;strokeColor=#82b366;container=0;" parent="1" vertex="1">
          <mxGeometry x="435" y="291.5" width="20" height="15" as="geometry" />
        </mxCell>
        <mxCell id="n47eNlnoth5snDdlfKDB-25" value="" style="strokeWidth=1;html=1;shape=mxgraph.flowchart.extract_or_measurement;whiteSpace=wrap;rotation=-180;fillColor=#d5e8d4;strokeColor=#82b366;container=0;" parent="1" vertex="1">
          <mxGeometry x="435.5" y="291.5" width="19" height="8.57142857142857" as="geometry" />
        </mxCell>
        <mxCell id="n47eNlnoth5snDdlfKDB-35" value="" style="ellipse;whiteSpace=wrap;html=1;fillColor=#f8cecc;strokeColor=#b85450;container=0;" parent="1" vertex="1">
          <mxGeometry x="590" y="284.5" width="30" height="30" as="geometry" />
        </mxCell>
        <mxCell id="n47eNlnoth5snDdlfKDB-36" value="" style="rounded=1;whiteSpace=wrap;html=1;absoluteArcSize=1;arcSize=2;strokeWidth=1;fillColor=#f8cecc;strokeColor=#b85450;container=0;" parent="1" vertex="1">
          <mxGeometry x="595" y="292" width="20" height="15" as="geometry" />
        </mxCell>
        <mxCell id="n47eNlnoth5snDdlfKDB-37" value="" style="strokeWidth=1;html=1;shape=mxgraph.flowchart.extract_or_measurement;whiteSpace=wrap;rotation=-180;fillColor=#f8cecc;strokeColor=#b85450;container=0;" parent="1" vertex="1">
          <mxGeometry x="595.5" y="292" width="19" height="8.57142857142857" as="geometry" />
        </mxCell>
        <mxCell id="n47eNlnoth5snDdlfKDB-52" value="" style="ellipse;whiteSpace=wrap;html=1;fillColor=#d5e8d4;strokeColor=#82b366;container=0;" parent="1" vertex="1">
          <mxGeometry x="650" y="284" width="30" height="30" as="geometry" />
        </mxCell>
        <mxCell id="n47eNlnoth5snDdlfKDB-54" value="" style="rounded=1;whiteSpace=wrap;html=1;absoluteArcSize=1;arcSize=2;strokeWidth=1;fillColor=#d5e8d4;strokeColor=#82b366;container=0;" parent="1" vertex="1">
          <mxGeometry x="655" y="291" width="20" height="15" as="geometry" />
        </mxCell>
        <mxCell id="n47eNlnoth5snDdlfKDB-55" value="" style="strokeWidth=1;html=1;shape=mxgraph.flowchart.extract_or_measurement;whiteSpace=wrap;rotation=-180;fillColor=#d5e8d4;strokeColor=#82b366;container=0;" parent="1" vertex="1">
          <mxGeometry x="655.5" y="291" width="19" height="8.57142857142857" as="geometry" />
        </mxCell>
        <mxCell id="n47eNlnoth5snDdlfKDB-59" value="" style="ellipse;whiteSpace=wrap;html=1;fillColor=#f8cecc;strokeColor=#b85450;container=0;" parent="1" vertex="1">
          <mxGeometry x="810" y="284" width="30" height="30" as="geometry" />
        </mxCell>
        <mxCell id="n47eNlnoth5snDdlfKDB-60" value="" style="rounded=1;whiteSpace=wrap;html=1;absoluteArcSize=1;arcSize=2;strokeWidth=1;fillColor=#f8cecc;strokeColor=#b85450;container=0;" parent="1" vertex="1">
          <mxGeometry x="815" y="291.5" width="20" height="15" as="geometry" />
        </mxCell>
        <mxCell id="n47eNlnoth5snDdlfKDB-61" value="" style="strokeWidth=1;html=1;shape=mxgraph.flowchart.extract_or_measurement;whiteSpace=wrap;rotation=-180;fillColor=#f8cecc;strokeColor=#b85450;container=0;" parent="1" vertex="1">
          <mxGeometry x="815.5" y="291.5" width="19" height="8.57142857142857" as="geometry" />
        </mxCell>
        <mxCell id="n47eNlnoth5snDdlfKDB-71" value="" style="ellipse;whiteSpace=wrap;html=1;fillColor=#d5e8d4;strokeColor=#82b366;container=0;" parent="1" vertex="1">
          <mxGeometry x="1010" y="283.5" width="30" height="30" as="geometry" />
        </mxCell>
        <mxCell id="n47eNlnoth5snDdlfKDB-73" value="" style="rounded=1;whiteSpace=wrap;html=1;absoluteArcSize=1;arcSize=2;strokeWidth=1;fillColor=#d5e8d4;strokeColor=#82b366;container=0;" parent="1" vertex="1">
          <mxGeometry x="1015" y="290.5" width="20" height="15" as="geometry" />
        </mxCell>
        <mxCell id="n47eNlnoth5snDdlfKDB-74" value="" style="strokeWidth=1;html=1;shape=mxgraph.flowchart.extract_or_measurement;whiteSpace=wrap;rotation=-180;fillColor=#d5e8d4;strokeColor=#82b366;container=0;" parent="1" vertex="1">
          <mxGeometry x="1015.5" y="290.5" width="19" height="8.57142857142857" as="geometry" />
        </mxCell>
        <mxCell id="n47eNlnoth5snDdlfKDB-78" value="" style="ellipse;whiteSpace=wrap;html=1;fillColor=#f8cecc;strokeColor=#b85450;container=0;" parent="1" vertex="1">
          <mxGeometry x="1170" y="283.5" width="30" height="30" as="geometry" />
        </mxCell>
        <mxCell id="n47eNlnoth5snDdlfKDB-79" value="" style="rounded=1;whiteSpace=wrap;html=1;absoluteArcSize=1;arcSize=2;strokeWidth=1;fillColor=#f8cecc;strokeColor=#b85450;container=0;" parent="1" vertex="1">
          <mxGeometry x="1175" y="291" width="20" height="15" as="geometry" />
        </mxCell>
        <mxCell id="n47eNlnoth5snDdlfKDB-80" value="" style="strokeWidth=1;html=1;shape=mxgraph.flowchart.extract_or_measurement;whiteSpace=wrap;rotation=-180;fillColor=#f8cecc;strokeColor=#b85450;container=0;" parent="1" vertex="1">
          <mxGeometry x="1175.5" y="291" width="19" height="8.57142857142857" as="geometry" />
        </mxCell>
      </root>
    </mxGraphModel>
  </diagram>
</mxfile>
